<svg xmlns="http://www.w3.org/2000/svg" viewBox="0 0 200 200">
  <title>connect</title>
  <g>
    <path d="M58.6,87.2" transform="translate(0.8)" style="fill: #91959e"/>
    <path d="M147.1,100.9H146l-19.3-40a15.6,15.6,0,1,0-28-9.3c0,0.6.1,1.3,0.1,1.9l-37,17.8a15.6,15.6,0,1,0-10.6,27h0.8l19.6,40.8a15.3,15.3,0,0,0-3.1,9.4,15.6,15.6,0,0,0,31.1,0,22.8,22.8,0,0,0-.2-2.4l37.4-18a15.8,15.8,0,0,0,10.3,4A15.6,15.6,0,0,0,147.1,100.9Zm-96-8.7a9.5,9.5,0,1,1,9.5-9.5h0A9.5,9.5,0,0,1,51.2,92.2Zm63.1-50.1a9.5,9.5,0,1,1-9.5,9.5h0A9.5,9.5,0,0,1,114.3,42.1ZM84,158a9.5,9.5,0,1,1,9.5-9.5A9.5,9.5,0,0,1,84,158h0Zm9.7-21.6a15.5,15.5,0,0,0-9.7-3.5l-2.9.2L62.2,93.7l0.8-.8,19.7,4a15.6,15.6,0,0,0,24.9,8.4l23.9,11.9a3.5,3.5,0,0,0,.1,1ZM88.3,93.1a9.5,9.5,0,1,1,9.5,9.5h0A9.5,9.5,0,0,1,88.3,93.1Zm47,13.2-22-11a9.5,9.5,0,0,0,.2-2.3,15.6,15.6,0,0,0-29.2-7.5L66.7,82.1V81.5l37.4-18a15.7,15.7,0,0,0,10.1,3.6l2.9-.2,18.6,38.8Zm11.9,19.6a9.5,9.5,0,1,1,9.5-9.5,9.5,9.5,0,0,1-9.5,9.5h0Z" transform="translate(0.8)" style="fill: #91959e"/>
  </g>
  <rect width="200" height="200" style="fill: none"/>
</svg>
