<svg xmlns="http://www.w3.org/2000/svg" viewBox="0 0 199.3 199">
  <title>consultancy</title>
  <rect width="199.3" height="199" style="fill: none"/>
  <g>
    <path d="M867.2,773H806.1A12.1,12.1,0,0,0,794,785.1v22.2c0,6.7,5.4,11.7,12.1,11.7h29.2L861,838V819h6.2A11.5,11.5,0,0,0,879,807.3V785.1A11.8,11.8,0,0,0,867.2,773Z" transform="translate(-700.5 -700.5)" style="fill: #91959e"/>
    <path d="M789,779.4c0-6.7,5.7-11.4,12.4-11.4H813v-5.2c0-6.7-6-11.8-12.7-11.8H739.2A11.9,11.9,0,0,0,727,762.8V785a12.1,12.1,0,0,0,12.2,12H745v18.7L771.1,797H789V779.4Z" transform="translate(-700.5 -700.5)" style="fill: #91959e"/>
  </g>
</svg>
