<?xml version="1.0" encoding="UTF-8"?><!DOCTYPE svg PUBLIC "-//W3C//DTD SVG 1.1//EN" "http://www.w3.org/Graphics/SVG/1.1/DTD/svg11.dtd"><svg xmlns="http://www.w3.org/2000/svg"><symbol id="icon-coding" viewBox="0 0 199.3 199"><title>coding</title><path fill="none" d="M0 0h199.3v199H0z"/><path d="M69.8 71l-50 19.5v20.1l50 20.2v-14.9l-35-15 35-15V71zm60 0l50 19.5v20.1l-50 20.2v-14.9l35-15-35-15V71zm-49.517 76.27l20.77-97.717 17.9 3.805-20.77 97.717z" fill="#959595"/></symbol><symbol id="icon-connect" viewBox="0 0 200 200"><title>connect</title><path d="M147.9 100.9h-1.1l-19.3-40a15.6 15.6 0 1 0-28-9.3c0 .6.1 1.3.1 1.9l-37 17.8a15.6 15.6 0 1 0-10.6 27h.8l19.6 40.8a15.3 15.3 0 0 0-3.1 9.4 15.6 15.6 0 0 0 31.1 0 22.8 22.8 0 0 0-.2-2.4l37.4-18a15.8 15.8 0 0 0 10.3 4 15.6 15.6 0 0 0 0-31.2zm-96-8.7a9.5 9.5 0 1 1 9.5-9.5 9.5 9.5 0 0 1-9.4 9.5zM115 42.1a9.5 9.5 0 1 1-9.5 9.5 9.5 9.5 0 0 1 9.6-9.5zM84.8 158a9.5 9.5 0 1 1 9.5-9.5 9.5 9.5 0 0 1-9.5 9.5zm9.7-21.6a15.5 15.5 0 0 0-9.7-3.5l-2.9.2L63 93.7l.8-.8 19.7 4a15.6 15.6 0 0 0 24.9 8.4l23.9 11.9a3.5 3.5 0 0 0 .1 1zm-5.4-43.3a9.5 9.5 0 1 1 9.5 9.5 9.5 9.5 0 0 1-9.5-9.5zm47 13.2l-22-11a9.5 9.5 0 0 0 .2-2.3 15.6 15.6 0 0 0-29.2-7.5l-17.6-3.4v-.6l37.4-18a15.7 15.7 0 0 0 10.1 3.6l2.9-.2 18.6 38.8zm11.9 19.6a9.5 9.5 0 1 1 9.5-9.5 9.5 9.5 0 0 1-9.5 9.5z" fill="#91959e"/><path fill="none" d="M0 0h200v200H0z"/></symbol><symbol id="icon-consultancy" viewBox="0 0 199.3 199"><title>consultancy</title><path fill="none" d="M0 0h199.3v199H0z"/><g fill="#91959e"><path d="M166.7 72.5h-61.1a12.1 12.1 0 0 0-12.1 12.1v22.2c0 6.7 5.4 11.7 12.1 11.7h29.2l25.7 19v-19h6.2a11.5 11.5 0 0 0 11.8-11.7V84.6a11.8 11.8 0 0 0-11.8-12.1z"/><path d="M88.5 78.9c0-6.7 5.7-11.4 12.4-11.4h11.6v-5.2c0-6.7-6-11.8-12.7-11.8H38.7a11.9 11.9 0 0 0-12.2 11.8v22.2a12.1 12.1 0 0 0 12.2 12h5.8v18.7l26.1-18.7h17.9V78.9z"/></g></symbol></svg>